{
  "accessors": [
    {
      "bufferView": 2,
      "componentType": 5126,
      "count": 61638,
      "max": [
        53.69076156616211,
        90.44605255126953,
        64.50495910644531
      ],
      "min": [
        -43.70967483520508,
        -30.62273597717285,
        -57.11653137207031
      ],
      "type": "VEC3"
    },
    {
      "bufferView": 2,
      "byteOffset": 739656,
      "componentType": 5126,
      "count": 61638,
      "max": [
        0.9999997615814209,
        0.9999755620956421,
        0.9999862909317017
      ],
      "min": [
        -0.9998958706855774,
        -0.9999963045120239,
        -0.9999863505363464
      ],
      "type": "VEC3"
    },
    {
      "bufferView": 3,
      "componentType": 5126,
      "count": 61638,
      "max": [
        0.9998309016227722,
        0.9999926090240479,
        0.9999988675117493,
        1.0
      ],
      "min": [
        -0.9999368786811829,
        -0.9999930262565613,
        -0.9999735355377197,
        -1.0
      ],
      "type": "VEC4"
    },
    {
      "bufferView": 1,
      "componentType": 5126,
      "count": 61638,
      "max": [
        0.9994601011276245,
        0.9988881349563599
      ],
      "min": [
        0.002479191869497299,
        0.0005269898101687431
      ],
      "type": "VEC2"
    },
    {
      "bufferView": 1,
      "byteOffset": 493104,
      "componentType": 5126,
      "count": 61638,
      "max": [
        0.0,
        0.0
      ],
      "min": [
        0.0,
        0.0
      ],
      "type": "VEC2"
    },
    {
      "bufferView": 0,
      "componentType": 5125,
      "count": 192306,
      "type": "SCALAR"
    },
    {
      "bufferView": 2,
      "byteOffset": 1479312,
      "componentType": 5126,
      "count": 4665,
      "max": [
        12.452224731445313,
        63.296234130859375,
        5.681751251220703
      ],
      "min": [
        -7.409187316894531,
        28.39865493774414,
        -5.779163360595703
      ],
      "type": "VEC3"
    },
    {
      "bufferView": 2,
      "byteOffset": 1535292,
      "componentType": 5126,
      "count": 4665,
      "max": [
        0.9999845027923584,
        0.9992370009422302,
        0.9992964863777161
      ],
      "min": [
        -0.9994198679924011,
        -0.9996100664138794,
        -0.9999806880950928
      ],
      "type": "VEC3"
    },
    {
      "bufferView": 3,
      "byteOffset": 986208,
      "componentType": 5126,
      "count": 4665,
      "max": [
        0.9998874068260193,
        0.9998391270637512,
        0.9999964833259583,
        1.0
      ],
      "min": [
        -0.9998508095741272,
        -0.9971592426300049,
        -0.9999161958694458,
        -1.0
      ],
      "type": "VEC4"
    },
    {
      "bufferView": 1,
      "byteOffset": 986208,
      "componentType": 5126,
      "count": 4665,
      "max": [
        0.998833179473877,
        0.9990489482879639
      ],
      "min": [
        9.219258208759129e-05,
        0.0025366288609802723
      ],
      "type": "VEC2"
    },
    {
      "bufferView": 1,
      "byteOffset": 1023528,
      "componentType": 5126,
      "count": 4665,
      "max": [
        1.0,
        0.9969161152839661
      ],
      "min": [
        0.0,
        0.0
      ],
      "type": "VEC2"
    },
    {
      "bufferView": 0,
      "byteOffset": 769224,
      "componentType": 5125,
      "count": 17211,
      "type": "SCALAR"
    }
  ],
  "asset": {
    "extras": {
      "author": "ArnaudLescure (https://sketchfab.com/ArnaudLescure)",
      "license": "CC-BY-4.0 (http://creativecommons.org/licenses/by/4.0/)",
      "source": "https://sketchfab.com/3d-models/reliquary-of-the-heart-5a0dbbb006434aec904616b0a5b27bbf",
      "title": "Reliquary of the heart"
    },
    "generator": "Sketchfab-12.65.0",
    "version": "2.0"
  },
  "bufferViews": [
    {
      "buffer": 0,
      "byteLength": 838068,
      "name": "floatBufferViews",
      "target": 34963
    },
    {
      "buffer": 0,
      "byteLength": 1060848,
      "byteOffset": 838068,
      "byteStride": 8,
      "name": "floatBufferViews",
      "target": 34962
    },
    {
      "buffer": 0,
      "byteLength": 1591272,
      "byteOffset": 1898916,
      "byteStride": 12,
      "name": "floatBufferViews",
      "target": 34962
    },
    {
      "buffer": 0,
      "byteLength": 1060848,
      "byteOffset": 3490188,
      "byteStride": 16,
      "name": "floatBufferViews",
      "target": 34962
    }
  ],
  "buffers": [
    {
      "byteLength": 4551036,
      "uri": "scene.bin"
    }
  ],
  "images": [
    {
      "uri": "textures/lambert1_baseColor.png"
    },
    {
      "uri": "textures/lambert1_metallicRoughness.png"
    },
    {
      "uri": "textures/lambert1_normal.png"
    },
    {
      "uri": "textures/koeur_baseColor.png"
    },
    {
      "uri": "textures/koeur_metallicRoughness.png"
    },
    {
      "uri": "textures/koeur_emissive.png"
    },
    {
      "uri": "textures/koeur_normal.png"
    }
  ],
  "materials": [
    {
      "doubleSided": true,
      "name": "lambert1",
      "normalTexture": {
        "index": 2
      },
      "pbrMetallicRoughness": {
        "baseColorTexture": {
          "index": 0
        },
        "metallicFactor": 0.0,
        "metallicRoughnessTexture": {
          "index": 1
        }
      }
    },
    {
      "alphaMode": "BLEND",
      "doubleSided": true,
      "emissiveFactor": [
        1.0,
        1.0,
        1.0
      ],
      "emissiveTexture": {
        "index": 5
      },
      "name": "koeur",
      "normalTexture": {
        "index": 6
      },
      "pbrMetallicRoughness": {
        "baseColorTexture": {
          "index": 3
        },
        "metallicRoughnessTexture": {
          "index": 4
        }
      }
    }
  ],
  "meshes": [
    {
      "name": "pCube209_lambert1_0",
      "primitives": [
        {
          "attributes": {
            "NORMAL": 1,
            "POSITION": 0,
            "TANGENT": 2,
            "TEXCOORD_0": 3,
            "TEXCOORD_1": 4
          },
          "indices": 5,
          "material": 0,
          "mode": 4
        }
      ]
    },
    {
      "name": "pCube209_koeur_0",
      "primitives": [
        {
          "attributes": {
            "NORMAL": 7,
            "POSITION": 6,
            "TANGENT": 8,
            "TEXCOORD_0": 9,
            "TEXCOORD_1": 10
          },
          "indices": 11,
          "material": 1,
          "mode": 4
        }
      ]
    }
  ],
  "nodes": [
    {
      "children": [
        1
      ],
      "matrix": [
        1.0,
        0.0,
        0.0,
        0.0,
        0.0,
        2.220446049250313e-16,
        -1.0,
        0.0,
        0.0,
        1.0,
        2.220446049250313e-16,
        0.0,
        0.0,
        0.0,
        0.0,
        1.0
      ],
      "name": "Sketchfab_model"
    },
    {
      "children": [
        2
      ],
      "matrix": [
        1.0,
        0.0,
        0.0,
        0.0,
        0.0,
        0.0,
        1.0,
        0.0,
        0.0,
        -1.0,
        0.0,
        0.0,
        0.0,
        0.0,
        0.0,
        1.0
      ],
      "name": "3442a01a7e464a1b8a760fb81d317c35.fbx"
    },
    {
      "children": [
        3
      ],
      "name": "RootNode"
    },
    {
      "children": [
        4,
        5
      ],
      "name": "pCube209"
    },
    {
      "mesh": 0,
      "name": "pCube209_lambert1_0"
    },
    {
      "mesh": 1,
      "name": "pCube209_koeur_0"
    }
  ],
  "samplers": [
    {
      "magFilter": 9729,
      "minFilter": 9987,
      "wrapS": 10497,
      "wrapT": 10497
    }
  ],
  "scene": 0,
  "scenes": [
    {
      "name": "Sketchfab_Scene",
      "nodes": [
        0
      ]
    }
  ],
  "textures": [
    {
      "sampler": 0,
      "source": 0
    },
    {
      "sampler": 0,
      "source": 1
    },
    {
      "sampler": 0,
      "source": 2
    },
    {
      "sampler": 0,
      "source": 3
    },
    {
      "sampler": 0,
      "source": 4
    },
    {
      "sampler": 0,
      "source": 5
    },
    {
      "sampler": 0,
      "source": 6
    }
  ]
}
